<?xml version="1.0" encoding="UTF-8"?>
<svg id="Layer_1" data-name="Layer 1" xmlns="http://www.w3.org/2000/svg" viewBox="0 0 340.14 246.77">
  <defs>
    <style>
      .cls-1 {
        fill: #006cea;
      }

      .cls-1, .cls-2, .cls-3, .cls-4 {
        stroke: #000;
        stroke-miterlimit: 10;
      }

      .cls-2 {
        fill: #fff;
      }

      .cls-3 {
        fill: #231f20;
      }

      .cls-4 {
        fill: none;
      }
    </style>
  </defs>
  <path class="cls-4" d="M142.43,225.66c22.69,0,27.7,7.42,27.7,7.42,0,0,0,0,0,0-.08-.11-5.18-7.42-27.7-7.42Z"/>
  <path class="cls-4" d="M313.93,10.31h0c-1.99,.56-6.56,.28-11.55-.28,4.98,.57,9.55,.84,11.55,.28Z"/>
  <path class="cls-4" d="M206.61,226.27s-.83-.09-2.22-.2c1.39,.1,2.21,.2,2.21,.2,1.66,.24,50.57,7.33,50.57,7.33,5.19,2.36,67.05,4.25,67.05,4.25,0,0,0,0,0,0-.44-.01-61.86-1.9-67.04-4.25,0,0-48.92-7.09-50.57-7.33Z"/>
  <path class="cls-4" d="M18.28,125.26s.66-99.3-2.21-102.46c2.86,3.39,2.2,102.46,2.2,102.46,1.87,.23-2.34,113.11-2.34,113.11,.35,.07,1.01,.1,1.92,.11-.9,0-1.56-.04-1.91-.11,0,0,4.2-112.88,2.34-113.11Z"/>
  <path class="cls-4" d="M74.15,234.51c.07,.02,.19,.03,.36,.03-.17,0-.29-.01-.36-.03,0,0,0,0,0,0Z"/>
  <path class="cls-4" d="M20.15,16.44l5.95-.16h0s-.24-6.03-.24-6.03h0l.24,6.03-5.95,.16-.16,6.27h-4.05s.01,0,.02,.01h4.04l.16-6.28Z"/>
  <path class="cls-1" d="M301.7,9.94c.23,.03,.46,.05,.68,.08,4.98,.57,9.56,.84,11.55,.28h0s0,0,.01,0v5.8l5.91,.22v6.02h4.38s-2.31,90.99-2.07,94.53c0,0-.35,120.03,2.07,120.98,0,0,0,0-.01,0,0,0,0,0,0,0,0,0-61.86-1.89-67.05-4.25,0,0-48.91-7.09-50.57-7.33,0,0-.82-.09-2.21-.2-6.62-.49-26.3-1.18-34.26,7.01,0,0,0,0,0,0,0,0,0,0,0,0,0,0-5.01-7.42-27.7-7.42-2.34,0-4.88,.08-7.61,.25,0,0-54.97,8.69-60.29,8.63-.17,0-.3-.01-.36-.03-.26,.02-45.66,4.03-56.3,3.97-.91,0-1.57-.04-1.92-.11,0,0,4.21-112.88,2.34-113.11,0,0,.66-99.07-2.2-102.46-.04-.05-.09-.08-.13-.08h0s-.01,0-.02-.01h4.05l.16-6.27,5.95-.16-.24-6.03h0s4.97-.01,11.09-.31H.59l-.09,230.43,156.71-.19s12.43,13.57,25.67,.19l156.76-.15V9.94h-37.94Z"/>
  <path class="cls-1" d="M170.12,23.8s2.07-7.5,11.74-13.86h-23.24c5.2,3.35,9.34,7.85,11.51,13.86Z"/>
  <path class="cls-2" d="M25.85,10.25l.24,6.02h0s-5.95,.17-5.95,.17l-.16,6.28h-4.05s.09,.03,.13,.08c2.87,3.16,2.21,102.46,2.21,102.46,1.86,.23-2.34,113.11-2.34,113.11,.35,.07,1.01,.1,1.91,.11,10.64,.06,56.04-3.94,56.3-3.97,0,0,0,0,0,0,.07,.02,.19,.03,.36,.03,5.33,.06,60.29-8.63,60.29-8.63,2.74-.18,5.27-.25,7.61-.25,22.52,0,27.63,7.31,27.7,7.42,0,0,0,0,0,0,7.95-8.19,27.64-7.5,34.26-7.01,1.4,.1,2.22,.2,2.22,.2,1.65,.24,50.57,7.33,50.57,7.33,5.18,2.35,66.6,4.24,67.04,4.25,0,0,.01,0,.01,0-2.42-.95-2.07-120.98-2.07-120.98-.24-3.54,2.07-94.53,2.07-94.53h-4.38v-6.02l-5.91-.22v-5.8s0,0-.01,0c-1.99,.56-6.57,.29-11.55-.28-.23-.03-.46-.05-.68-.08-8.3-.98-17.42-2.71-17.42-2.71C239.28-.1,215.91,1.26,215.91,1.26c-16.5,.25-27.18,4.17-34.04,8.67,0,0,0,0-.01,.01-9.67,6.36-11.74,13.86-11.74,13.86-2.17-6.01-6.3-10.51-11.51-13.86,0,0,0,0-.01-.01C138.37-3.09,101.95,1.16,101.95,1.16c-6.47,.04-45.26,6.19-45.26,6.19-4.31,1.52-12.63,2.24-19.54,2.58-.07,0-.14,0-.21,.01-6.12,.3-11.09,.3-11.09,.3h0Zm185.69,123.84c1.54-3,3.62-5.38,6.25-7.12s5.52-2.62,8.69-2.62c2.92,0,5.38,.73,7.38,2.19,2,1.46,3.25,3.48,3.75,6.06-4.33,0-7.79,1.15-10.38,3.44-2.58,2.29-3.88,5.4-3.88,9.31,0,3.58,1.08,6.46,3.25,8.62,2.17,2.17,5.04,3.25,8.62,3.25,4.42,0,8.06-1.48,10.94-4.44,2.88-2.96,4.31-6.69,4.31-11.19,0-3.92-1.08-7.62-3.25-11.12-2.17-3.5-5.42-7.75-9.75-12.75-4.5-5.17-7.9-9.6-10.19-13.31-2.29-3.71-3.44-7.77-3.44-12.19s1.21-8.23,3.62-11.69c2.42-3.46,5.75-6.19,10-8.19s9.04-3,14.38-3c6.75,0,12.14,1.58,16.19,4.75,4.04,3.17,6.06,7.42,6.06,12.75,0,3.5-.88,6.33-2.62,8.5-1.75,2.17-4.04,3.25-6.88,3.25-3.17,0-5.71-1.29-7.62-3.88,1.58-1.17,2.83-2.71,3.75-4.62,.92-1.92,1.38-3.92,1.38-6,0-2.67-.79-4.79-2.38-6.38-1.58-1.58-3.75-2.38-6.5-2.38-3.33,0-6.06,1.19-8.19,3.56s-3.19,5.4-3.19,9.06c0,3.33,.96,6.44,2.88,9.31,1.92,2.88,4.92,6.56,9,11.06,3.33,3.58,6.02,6.67,8.06,9.25,2.04,2.58,3.79,5.56,5.25,8.94,1.46,3.38,2.19,7.02,2.19,10.94,0,5.33-1.48,10.17-4.44,14.5-2.96,4.33-7,7.75-12.12,10.25s-10.81,3.75-17.06,3.75c-5.25,0-9.88-.92-13.88-2.75s-7.08-4.39-9.25-7.69c-2.17-3.29-3.25-7.1-3.25-11.44,0-3.67,.77-7,2.31-10Zm-79.5-45.94c-3.46,4.79-5.19,10.73-5.19,17.81,0,3.17,.29,5.33,.88,6.5,.58,1.17,.88,1.88,.88,2.12-8.92,0-13.38-3.79-13.38-11.38,0-5.17,1.98-10.35,5.94-15.56,3.96-5.21,9.04-9.46,15.25-12.75,6.21-3.29,12.39-4.94,18.56-4.94,3.08,0,6.25,.58,9.5,1.75l-2.88,65.88,27.5-65.88h18l-13.12,92h-18l8-56.12-23.5,56.12h-17.12l2.5-56.38-20.88,56.38h-10l31.75-85.88c-6.33,2.08-11.23,5.52-14.69,10.31Zm-65.5,0c4.38-5.04,9.98-9.12,16.81-12.25,6.83-3.12,13.67-4.69,20.5-4.69,1.17,0,2.83,.08,5,.25l-19.25,89.75c2.33,.58,4.73,1.44,7.19,2.56,2.46,1.12,5.44,2.64,8.94,4.56,5.42,2.92,10.04,5.14,13.88,6.69,3.83,1.54,7.83,2.31,12,2.31,3.75,0,7.25-.67,10.5-2-.67,6.08-2.15,10.88-4.44,14.38-2.29,3.5-5.15,5.25-8.56,5.25-3.75,0-7.44-1.06-11.06-3.19s-8.23-5.4-13.81-9.81c-4.17-3.33-7.73-6.02-10.69-8.06-2.96-2.04-6.17-3.77-9.62-5.19-3.46-1.42-6.98-2.12-10.56-2.12-1.25,0-2.21,.04-2.88,.12l18.62-86.62c-5.58,2.25-9.9,5.69-12.94,10.31-3.04,4.62-4.56,10.27-4.56,16.94,0,3.08,.29,5.23,.88,6.44,.58,1.21,.88,1.9,.88,2.06-4.5,0-7.86-.94-10.06-2.81-2.21-1.88-3.31-4.98-3.31-9.31,0-5.33,2.19-10.52,6.56-15.56Z"/>
  <path class="cls-3" d="M63.29,113.02c2.21,1.88,5.56,2.81,10.06,2.81,0-.17-.29-.85-.88-2.06-.58-1.21-.88-3.35-.88-6.44,0-6.67,1.52-12.31,4.56-16.94,3.04-4.62,7.35-8.06,12.94-10.31l-18.62,86.62c.67-.08,1.62-.12,2.88-.12,3.58,0,7.1,.71,10.56,2.12,3.46,1.42,6.67,3.14,9.62,5.19,2.96,2.04,6.52,4.73,10.69,8.06,5.58,4.42,10.19,7.69,13.81,9.81s7.31,3.19,11.06,3.19c3.42,0,6.27-1.75,8.56-5.25,2.29-3.5,3.77-8.29,4.44-14.38-3.25,1.33-6.75,2-10.5,2-4.17,0-8.17-.77-12-2.31-3.83-1.54-8.46-3.77-13.88-6.69-3.5-1.92-6.48-3.44-8.94-4.56-2.46-1.12-4.86-1.98-7.19-2.56l19.25-89.75c-2.17-.17-3.83-.25-5-.25-6.83,0-13.67,1.56-20.5,4.69-6.83,3.12-12.44,7.21-16.81,12.25-4.38,5.04-6.56,10.23-6.56,15.56,0,4.33,1.1,7.44,3.31,9.31Z"/>
  <path class="cls-3" d="M124.97,163.71l20.88-56.38-2.5,56.38h17.12l23.5-56.12-8,56.12h18l13.12-92h-18l-27.5,65.88,2.88-65.88c-3.25-1.17-6.42-1.75-9.5-1.75-6.17,0-12.36,1.65-18.56,4.94-6.21,3.29-11.29,7.54-15.25,12.75-3.96,5.21-5.94,10.4-5.94,15.56,0,7.58,4.46,11.38,13.38,11.38,0-.25-.29-.96-.88-2.12-.58-1.17-.88-3.33-.88-6.5,0-7.08,1.73-13.02,5.19-17.81,3.46-4.79,8.35-8.23,14.69-10.31l-31.75,85.88h10Z"/>
  <path class="cls-3" d="M221.72,163.21c4,1.83,8.62,2.75,13.88,2.75,6.25,0,11.94-1.25,17.06-3.75s9.17-5.92,12.12-10.25c2.96-4.33,4.44-9.17,4.44-14.5,0-3.92-.73-7.56-2.19-10.94-1.46-3.38-3.21-6.35-5.25-8.94-2.04-2.58-4.73-5.67-8.06-9.25-4.08-4.5-7.08-8.19-9-11.06-1.92-2.88-2.88-5.98-2.88-9.31,0-3.67,1.06-6.69,3.19-9.06s4.85-3.56,8.19-3.56c2.75,0,4.92,.79,6.5,2.38,1.58,1.58,2.38,3.71,2.38,6.38,0,2.08-.46,4.08-1.38,6-.92,1.92-2.17,3.46-3.75,4.62,1.92,2.58,4.46,3.88,7.62,3.88,2.83,0,5.12-1.08,6.88-3.25,1.75-2.17,2.62-5,2.62-8.5,0-5.33-2.02-9.58-6.06-12.75-4.04-3.17-9.44-4.75-16.19-4.75-5.33,0-10.12,1-14.38,3s-7.58,4.73-10,8.19c-2.42,3.46-3.62,7.36-3.62,11.69s1.14,8.48,3.44,12.19c2.29,3.71,5.69,8.15,10.19,13.31,4.33,5,7.58,9.25,9.75,12.75,2.17,3.5,3.25,7.21,3.25,11.12,0,4.5-1.44,8.23-4.31,11.19-2.88,2.96-6.52,4.44-10.94,4.44-3.58,0-6.46-1.08-8.62-3.25-2.17-2.17-3.25-5.04-3.25-8.62,0-3.92,1.29-7.02,3.88-9.31,2.58-2.29,6.04-3.44,10.38-3.44-.5-2.58-1.75-4.6-3.75-6.06-2-1.46-4.46-2.19-7.38-2.19-3.17,0-6.06,.88-8.69,2.62s-4.71,4.12-6.25,7.12c-1.54,3-2.31,6.33-2.31,10,0,4.33,1.08,8.15,3.25,11.44,2.17,3.29,5.25,5.86,9.25,7.69Z"/>
</svg>