<?xml version="1.0" encoding="UTF-8"?>
<svg id="Layer_1" data-name="Layer 1" xmlns="http://www.w3.org/2000/svg" viewBox="0 0 1348.08 246.77">
  <defs>
    <style>
      .cls-1, .cls-2, .cls-3, .cls-4, .cls-5 {
        stroke: #000;
        stroke-miterlimit: 10;
      }

      .cls-2 {
        fill: #006cea;
      }

      .cls-3 {
        fill: #fff;
      }

      .cls-4 {
        fill: #231f20;
      }

      .cls-5 {
        fill: none;
      }
    </style>
  </defs>
  <path class="cls-5" d="M206.61,226.27s-.83-.09-2.22-.2c1.39,.1,2.21,.2,2.21,.2,1.66,.24,50.57,7.33,50.57,7.33,5.19,2.36,67.05,4.25,67.05,4.25,0,0,0,0,0,0-.44-.01-61.86-1.9-67.04-4.25,0,0-48.92-7.09-50.57-7.33Z"/>
  <path class="cls-5" d="M313.93,10.31h0c-1.99,.56-6.56,.28-11.55-.28,4.98,.57,9.55,.84,11.55,.28Z"/>
  <path class="cls-5" d="M142.43,225.66c22.69,0,27.7,7.42,27.7,7.42,0,0,0,0,0,0-.08-.11-5.18-7.42-27.7-7.42Z"/>
  <path class="cls-5" d="M435.48,114.57c-.17-2.77-.59-4.68-1.26-5.73-.67-1.05-1.85-1.58-3.53-1.58-2.77,0-5.46,2.02-8.06,6.05-2.6,4.03-4.71,8.86-6.3,14.49-1.6,5.63-2.39,10.58-2.39,14.87,0,4.03,.46,6.74,1.39,8.13,.92,1.39,2.6,2.08,5.04,2.08,2.02,0,4.03-1.15,6.05-3.46,2.02-2.31,3.78-5.46,5.29-9.45,1.51-3.99,2.6-8.42,3.28-13.29-2.27-.5-3.4-2.27-3.4-5.29,0-3.44,1.3-5.71,3.91-6.8Z"/>
  <path class="cls-5" d="M18.28,125.26s.66-99.3-2.21-102.46c2.86,3.39,2.2,102.46,2.2,102.46,1.87,.23-2.34,113.11-2.34,113.11,.35,.07,1.01,.1,1.92,.11-.9,0-1.56-.04-1.91-.11,0,0,4.2-112.88,2.34-113.11Z"/>
  <path class="cls-5" d="M20.15,16.44l5.95-.16h0s-.24-6.03-.24-6.03h0l.24,6.03-5.95,.16-.16,6.27h-4.05s.01,0,.02,.01h4.04l.16-6.28Z"/>
  <path class="cls-5" d="M620.57,114.57c-.17-2.77-.59-4.68-1.26-5.73-.67-1.05-1.85-1.58-3.53-1.58-2.77,0-5.46,2.02-8.06,6.05-2.6,4.03-4.71,8.86-6.3,14.49-1.6,5.63-2.39,10.58-2.39,14.87,0,4.03,.46,6.74,1.39,8.13,.92,1.39,2.6,2.08,5.04,2.08,2.02,0,4.03-1.15,6.05-3.46,2.02-2.31,3.78-5.46,5.29-9.45,1.51-3.99,2.6-8.42,3.28-13.29-2.27-.5-3.4-2.27-3.4-5.29,0-3.44,1.3-5.71,3.91-6.8Z"/>
  <path class="cls-5" d="M74.15,234.51c.07,.02,.19,.03,.36,.03-.17,0-.29-.01-.36-.03,0,0,0,0,0,0Z"/>
  <path class="cls-5" d="M550.51,107.89c-3.36,0-6.38,1.95-9.07,5.86-2.69,3.91-4.79,8.61-6.3,14.11-1.51,5.5-2.27,10.35-2.27,14.55s.61,6.89,1.83,8.06c1.22,1.18,2.71,1.76,4.47,1.76,2.02,0,4.05-.92,6.11-2.77,2.06-1.85,3.46-4.41,4.22-7.69v-.63l6.17-28.85c-.76-2.94-2.48-4.41-5.17-4.41Z"/>
  <path class="cls-5" d="M966.05,181.22c0,1.09,.38,2.06,1.13,2.9,.76,.84,1.81,1.26,3.15,1.26,1.43,0,2.81-.97,4.16-2.9,1.34-1.93,2.39-4.71,3.15-8.32l.76-3.65c-8.23,3.03-12.35,6.59-12.35,10.71Z"/>
  <path class="cls-5" d="M985.59,107.89c-3.36,0-6.38,1.95-9.07,5.86-2.69,3.91-4.79,8.61-6.3,14.11-1.51,5.5-2.27,10.35-2.27,14.55s.61,6.89,1.83,8.06c1.22,1.18,2.71,1.76,4.47,1.76,1.93,0,3.91-.88,5.92-2.65,2.02-1.76,3.4-4.16,4.16-7.18l6.43-29.86c0-1.01-.42-2.04-1.26-3.09-.84-1.05-2.14-1.57-3.91-1.57Z"/>
  <path class="cls-5" d="M1275,114.57c-.17-2.77-.59-4.68-1.26-5.73-.67-1.05-1.85-1.58-3.53-1.58-2.77,0-5.46,2.02-8.06,6.05-2.6,4.03-4.71,8.86-6.3,14.49-1.6,5.63-2.39,10.58-2.39,14.87,0,4.03,.46,6.74,1.39,8.13,.92,1.39,2.6,2.08,5.04,2.08,2.02,0,4.03-1.15,6.05-3.46,2.02-2.31,3.78-5.46,5.29-9.45,1.51-3.99,2.6-8.42,3.28-13.29-2.27-.5-3.4-2.27-3.4-5.29,0-3.44,1.3-5.71,3.91-6.8Z"/>
  <path class="cls-5" d="M1049.47,107.89c-3.36,0-6.38,1.95-9.07,5.86-2.69,3.91-4.79,8.61-6.3,14.11-1.51,5.5-2.27,10.35-2.27,14.55s.61,6.89,1.83,8.06c1.22,1.18,2.71,1.76,4.47,1.76,2.1,0,4.18-.99,6.24-2.96,2.06-1.97,3.46-4.68,4.22-8.13l6.05-28.48c0-1.09-.42-2.16-1.26-3.21-.84-1.05-2.14-1.57-3.91-1.57Z"/>
  <path class="cls-5" d="M1324.01,109.15c-1.51,0-3.05,.55-4.6,1.64-1.56,1.09-2.92,2.6-4.1,4.54l-7.43,35.28c.67,1.93,2.27,2.9,4.79,2.9,4.03,0,7.37-1.89,10.02-5.67,2.65-3.78,4.58-8.29,5.8-13.54,1.22-5.25,1.83-10.14,1.83-14.68,0-6.97-2.1-10.46-6.3-10.46Z"/>
  <path class="cls-5" d="M855.68,107.89c-3.36,0-6.38,1.95-9.07,5.86-2.69,3.91-4.79,8.61-6.3,14.11-1.51,5.5-2.27,10.35-2.27,14.55s.61,6.89,1.83,8.06c1.22,1.18,2.71,1.76,4.47,1.76,2.1,0,4.18-.99,6.24-2.96,2.06-1.97,3.46-4.68,4.22-8.13l6.05-28.48c0-1.09-.42-2.16-1.26-3.21-.84-1.05-2.14-1.57-3.91-1.57Z"/>
  <path class="cls-2" d="M302.38,10.02c4.98,.57,9.56,.84,11.55,.28h0s0,0,.01,0v5.8l5.91,.22v6.02h4.38s-2.31,90.99-2.07,94.53c0,0-.35,120.03,2.07,120.98,0,0,0,0-.01,0,0,0,0,0,0,0,0,0-61.86-1.89-67.05-4.25,0,0-48.91-7.09-50.57-7.33,0,0-.82-.09-2.21-.2-6.62-.49-26.3-1.18-34.26,7.01,0,0,0,0,0,0,0,0,0,0,0,0,0,0-5.01-7.42-27.7-7.42-2.34,0-4.88,.08-7.61,.25,0,0-54.97,8.69-60.29,8.63-.17,0-.3-.01-.36-.03-.26,.02-45.66,4.03-56.3,3.97-.91,0-1.57-.04-1.92-.11,0,0,4.21-112.88,2.34-113.11,0,0,.66-99.07-2.2-102.46-.04-.05-.09-.08-.13-.08h0s-.01,0-.02-.01h4.05l.16-6.27,5.95-.16-.24-6.03h0s4.97-.01,11.09-.31H.59l-.09,230.43,156.71-.19s12.43,13.57,25.67,.19l156.76-.15V9.94h-37.94c.23,.03,.46,.05,.68,.08Z"/>
  <path class="cls-2" d="M170.12,23.8s2.07-7.5,11.74-13.86h-23.24c5.2,3.35,9.34,7.85,11.51,13.86Z"/>
  <path class="cls-3" d="M25.85,10.25l.24,6.02h0s-5.95,.17-5.95,.17l-.16,6.28h-4.05s.09,.03,.13,.08c2.87,3.16,2.21,102.46,2.21,102.46,1.86,.23-2.34,113.11-2.34,113.11,.35,.07,1.01,.1,1.91,.11,10.64,.06,56.04-3.94,56.3-3.97,0,0,0,0,0,0,.07,.02,.19,.03,.36,.03,5.33,.06,60.29-8.63,60.29-8.63,2.74-.18,5.27-.25,7.61-.25,22.52,0,27.63,7.31,27.7,7.42,0,0,0,0,0,0,7.95-8.19,27.64-7.5,34.26-7.01,1.4,.1,2.22,.2,2.22,.2,1.65,.24,50.57,7.33,50.57,7.33,5.18,2.35,66.6,4.24,67.04,4.25,0,0,.01,0,.01,0-2.42-.95-2.07-120.98-2.07-120.98-.24-3.54,2.07-94.53,2.07-94.53h-4.38v-6.02l-5.91-.22v-5.8s0,0-.01,0c-1.99,.56-6.57,.29-11.55-.28-.23-.03-.46-.05-.68-.08-8.3-.98-17.42-2.71-17.42-2.71C239.28-.1,215.91,1.26,215.91,1.26c-16.5,.25-27.18,4.17-34.04,8.67,0,0,0,0-.01,.01-9.67,6.36-11.74,13.86-11.74,13.86-2.17-6.01-6.3-10.51-11.51-13.86,0,0,0,0-.01-.01C138.37-3.09,101.95,1.16,101.95,1.16c-6.47,.04-45.26,6.19-45.26,6.19-4.31,1.52-12.63,2.24-19.54,2.58-.07,0-.14,0-.21,.01-6.12,.3-11.09,.3-11.09,.3h0Zm185.69,123.84c1.54-3,3.62-5.38,6.25-7.12s5.52-2.62,8.69-2.62c2.92,0,5.38,.73,7.38,2.19,2,1.46,3.25,3.48,3.75,6.06-4.33,0-7.79,1.15-10.38,3.44-2.58,2.29-3.88,5.4-3.88,9.31,0,3.58,1.08,6.46,3.25,8.62,2.17,2.17,5.04,3.25,8.62,3.25,4.42,0,8.06-1.48,10.94-4.44,2.88-2.96,4.31-6.69,4.31-11.19,0-3.92-1.08-7.62-3.25-11.12-2.17-3.5-5.42-7.75-9.75-12.75-4.5-5.17-7.9-9.6-10.19-13.31-2.29-3.71-3.44-7.77-3.44-12.19s1.21-8.23,3.62-11.69c2.42-3.46,5.75-6.19,10-8.19s9.04-3,14.38-3c6.75,0,12.14,1.58,16.19,4.75,4.04,3.17,6.06,7.42,6.06,12.75,0,3.5-.88,6.33-2.62,8.5-1.75,2.17-4.04,3.25-6.88,3.25-3.17,0-5.71-1.29-7.62-3.88,1.58-1.17,2.83-2.71,3.75-4.62,.92-1.92,1.38-3.92,1.38-6,0-2.67-.79-4.79-2.38-6.38-1.58-1.58-3.75-2.38-6.5-2.38-3.33,0-6.06,1.19-8.19,3.56s-3.19,5.4-3.19,9.06c0,3.33,.96,6.44,2.88,9.31,1.92,2.88,4.92,6.56,9,11.06,3.33,3.58,6.02,6.67,8.06,9.25,2.04,2.58,3.79,5.56,5.25,8.94,1.46,3.38,2.19,7.02,2.19,10.94,0,5.33-1.48,10.17-4.44,14.5-2.96,4.33-7,7.75-12.12,10.25s-10.81,3.75-17.06,3.75c-5.25,0-9.88-.92-13.88-2.75s-7.08-4.39-9.25-7.69c-2.17-3.29-3.25-7.1-3.25-11.44,0-3.67,.77-7,2.31-10Zm-79.5-45.94c-3.46,4.79-5.19,10.73-5.19,17.81,0,3.17,.29,5.33,.88,6.5,.58,1.17,.88,1.88,.88,2.12-8.92,0-13.38-3.79-13.38-11.38,0-5.17,1.98-10.35,5.94-15.56,3.96-5.21,9.04-9.46,15.25-12.75,6.21-3.29,12.39-4.94,18.56-4.94,3.08,0,6.25,.58,9.5,1.75l-2.88,65.88,27.5-65.88h18l-13.12,92h-18l8-56.12-23.5,56.12h-17.12l2.5-56.38-20.88,56.38h-10l31.75-85.88c-6.33,2.08-11.23,5.52-14.69,10.31Zm-65.5,0c4.38-5.04,9.98-9.12,16.81-12.25,6.83-3.12,13.67-4.69,20.5-4.69,1.17,0,2.83,.08,5,.25l-19.25,89.75c2.33,.58,4.73,1.44,7.19,2.56,2.46,1.12,5.44,2.64,8.94,4.56,5.42,2.92,10.04,5.14,13.88,6.69,3.83,1.54,7.83,2.31,12,2.31,3.75,0,7.25-.67,10.5-2-.67,6.08-2.15,10.88-4.44,14.38-2.29,3.5-5.15,5.25-8.56,5.25-3.75,0-7.44-1.06-11.06-3.19s-8.23-5.4-13.81-9.81c-4.17-3.33-7.73-6.02-10.69-8.06-2.96-2.04-6.17-3.77-9.62-5.19-3.46-1.42-6.98-2.12-10.56-2.12-1.25,0-2.21,.04-2.88,.12l18.62-86.62c-5.58,2.25-9.9,5.69-12.94,10.31-3.04,4.62-4.56,10.27-4.56,16.94,0,3.08,.29,5.23,.88,6.44,.58,1.21,.88,1.9,.88,2.06-4.5,0-7.86-.94-10.06-2.81-2.21-1.88-3.31-4.98-3.31-9.31,0-5.33,2.19-10.52,6.56-15.56Z"/>
  <path class="cls-4" d="M63.29,113.02c2.21,1.88,5.56,2.81,10.06,2.81,0-.17-.29-.85-.88-2.06-.58-1.21-.88-3.35-.88-6.44,0-6.67,1.52-12.31,4.56-16.94,3.04-4.62,7.35-8.06,12.94-10.31l-18.62,86.62c.67-.08,1.62-.12,2.88-.12,3.58,0,7.1,.71,10.56,2.12,3.46,1.42,6.67,3.14,9.62,5.19,2.96,2.04,6.52,4.73,10.69,8.06,5.58,4.42,10.19,7.69,13.81,9.81s7.31,3.19,11.06,3.19c3.42,0,6.27-1.75,8.56-5.25,2.29-3.5,3.77-8.29,4.44-14.38-3.25,1.33-6.75,2-10.5,2-4.17,0-8.17-.77-12-2.31-3.83-1.54-8.46-3.77-13.88-6.69-3.5-1.92-6.48-3.44-8.94-4.56-2.46-1.12-4.86-1.98-7.19-2.56l19.25-89.75c-2.17-.17-3.83-.25-5-.25-6.83,0-13.67,1.56-20.5,4.69-6.83,3.12-12.44,7.21-16.81,12.25-4.38,5.04-6.56,10.23-6.56,15.56,0,4.33,1.1,7.44,3.31,9.31Z"/>
  <path class="cls-4" d="M124.97,163.71l20.88-56.38-2.5,56.38h17.12l23.5-56.12-8,56.12h18l13.12-92h-18l-27.5,65.88,2.88-65.88c-3.25-1.17-6.42-1.75-9.5-1.75-6.17,0-12.36,1.65-18.56,4.94-6.21,3.29-11.29,7.54-15.25,12.75-3.96,5.21-5.94,10.4-5.94,15.56,0,7.58,4.46,11.38,13.38,11.38,0-.25-.29-.96-.88-2.12-.58-1.17-.88-3.33-.88-6.5,0-7.08,1.73-13.02,5.19-17.81,3.46-4.79,8.35-8.23,14.69-10.31l-31.75,85.88h10Z"/>
  <path class="cls-4" d="M221.72,163.21c4,1.83,8.62,2.75,13.88,2.75,6.25,0,11.94-1.25,17.06-3.75s9.17-5.92,12.12-10.25c2.96-4.33,4.44-9.17,4.44-14.5,0-3.92-.73-7.56-2.19-10.94-1.46-3.38-3.21-6.35-5.25-8.94-2.04-2.58-4.73-5.67-8.06-9.25-4.08-4.5-7.08-8.19-9-11.06-1.92-2.88-2.88-5.98-2.88-9.31,0-3.67,1.06-6.69,3.19-9.06s4.85-3.56,8.19-3.56c2.75,0,4.92,.79,6.5,2.38,1.58,1.58,2.38,3.71,2.38,6.38,0,2.08-.46,4.08-1.38,6-.92,1.92-2.17,3.46-3.75,4.62,1.92,2.58,4.46,3.88,7.62,3.88,2.83,0,5.12-1.08,6.88-3.25,1.75-2.17,2.62-5,2.62-8.5,0-5.33-2.02-9.58-6.06-12.75-4.04-3.17-9.44-4.75-16.19-4.75-5.33,0-10.12,1-14.38,3s-7.58,4.73-10,8.19c-2.42,3.46-3.62,7.36-3.62,11.69s1.14,8.48,3.44,12.19c2.29,3.71,5.69,8.15,10.19,13.31,4.33,5,7.58,9.25,9.75,12.75,2.17,3.5,3.25,7.21,3.25,11.12,0,4.5-1.44,8.23-4.31,11.19-2.88,2.96-6.52,4.44-10.94,4.44-3.58,0-6.46-1.08-8.62-3.25-2.17-2.17-3.25-5.04-3.25-8.62,0-3.92,1.29-7.02,3.88-9.31,2.58-2.29,6.04-3.44,10.38-3.44-.5-2.58-1.75-4.6-3.75-6.06-2-1.46-4.46-2.19-7.38-2.19-3.17,0-6.06,.88-8.69,2.62s-4.71,4.12-6.25,7.12c-1.54,3-2.31,6.33-2.31,10,0,4.33,1.08,8.15,3.25,11.44,2.17,3.29,5.25,5.86,9.25,7.69Z"/>
  <path class="cls-1" d="M410.03,175.11c-3.87-1.55-8.53-3.8-13.99-6.74-3.53-1.93-6.53-3.47-9.01-4.6-2.48-1.13-4.89-1.99-7.25-2.58l19.4-90.47c-2.19-.17-3.87-.25-5.04-.25-6.89,0-13.78,1.58-20.66,4.73-6.89,3.15-12.54,7.27-16.95,12.35-4.41,5.08-6.62,10.31-6.62,15.69,0,4.37,1.11,7.5,3.34,9.39,2.22,1.89,5.61,2.83,10.14,2.83,0-.17-.3-.86-.88-2.08-.59-1.22-.88-3.38-.88-6.49,0-6.72,1.53-12.41,4.6-17.07,3.07-4.66,7.41-8.13,13.04-10.4l-18.77,87.32c.67-.08,1.64-.13,2.9-.13,3.61,0,7.16,.71,10.65,2.14,3.49,1.43,6.72,3.17,9.7,5.23,2.98,2.06,6.57,4.77,10.77,8.13,5.63,4.45,10.27,7.75,13.92,9.89,3.65,2.14,7.37,3.21,11.15,3.21,3.44,0,6.32-1.76,8.63-5.29,2.31-3.53,3.8-8.36,4.47-14.49-3.28,1.34-6.8,2.02-10.58,2.02-4.2,0-8.23-.78-12.1-2.33Z"/>
  <path class="cls-1" d="M686.47,150.86c-.76-.92-1.13-2.22-1.13-3.91,0-1.43,.27-3.38,.82-5.86,.54-2.48,1.15-5.02,1.83-7.62,1.09-4.28,1.93-7.92,2.52-10.9,.59-2.98,.88-5.69,.88-8.13,0-4.79-1.26-8.36-3.78-10.71-2.52-2.35-5.92-3.53-10.21-3.53-5.63,0-10.54,2.35-14.74,7.06l1.39-6.55h-18.14l-3.58,16.87c-.15,.06-.3,.14-.45,.2-3.61,1.47-6.8,2.2-9.58,2.2-.67,0-1.13-.04-1.39-.13v-.13c0-13.44-5.38-20.16-16.13-20.16-7.9,0-14.45,2.54-19.66,7.62-5.21,5.08-8.99,11.11-11.34,18.08-2.35,6.97-3.53,13.32-3.53,19.03,0,.44,.03,.84,.04,1.26-.7,1.39-1.49,2.61-2.37,3.65-1.72,2.02-3.76,3.02-6.11,3.02-1.85,0-3.17-.36-3.97-1.07-.8-.71-1.2-1.91-1.2-3.59,0-1.43,.17-2.77,.5-4.03l14.49-68.04-18.65,2.52-6.17,28.98v-.5c0-1.93-.84-3.48-2.52-4.66-1.68-1.18-4.24-1.76-7.69-1.76-6.8,0-12.66,2.37-17.58,7.12-4.91,4.75-8.61,10.54-11.09,17.39-2.48,6.85-3.72,13.38-3.72,19.59,0,.22,.02,.42,.02,.64-.97,1.98-1.94,3.55-2.92,4.71-1.51,1.81-3.53,2.71-6.05,2.71-1.85,0-3.15-.46-3.91-1.39-.76-.92-1.13-2.22-1.13-3.91,0-1.43,.27-3.38,.82-5.86,.54-2.48,1.15-5.02,1.83-7.62,1.09-4.28,1.93-7.92,2.52-10.9,.59-2.98,.88-5.69,.88-8.13,0-4.79-1.26-8.36-3.78-10.71-2.52-2.35-5.92-3.53-10.21-3.53-5.63,0-10.54,2.35-14.74,7.06l1.39-6.55h-18.14l-3.58,16.87c-.15,.06-.3,.14-.45,.2-3.61,1.47-6.8,2.2-9.58,2.2-.67,0-1.13-.04-1.39-.13v-.13c0-13.44-5.38-20.16-16.13-20.16-7.9,0-14.45,2.54-19.66,7.62-5.21,5.08-8.99,11.11-11.34,18.08-2.35,6.97-3.53,13.32-3.53,19.03,0,6.89,1.8,11.93,5.42,15.12,3.61,3.19,8.52,4.79,14.74,4.79,5.12,0,9.87-1.55,14.24-4.66,4.37-3.11,7.94-7.52,10.71-13.23,2.77-5.71,4.49-12.39,5.17-20.03,3.76-.62,7.28-1.6,10.57-2.91l-8.55,40.33h18.14l8.57-40.45c1.01-3.44,2.35-6.24,4.03-8.38,1.68-2.14,3.61-3.21,5.8-3.21,3.02,0,4.54,2.14,4.54,6.43,0,1.76-.29,4.08-.88,6.93-.59,2.86-1.22,5.75-1.89,8.69-.17,.59-.48,1.93-.94,4.03-.46,2.1-.9,4.26-1.32,6.49-.42,2.23-.63,4.22-.63,5.98,0,4.03,1.2,7.41,3.59,10.14,2.39,2.73,6.15,4.09,11.28,4.09,4.37,0,8.59-1.58,12.66-4.73,1.83-1.41,3.56-3.44,5.19-6.08,.8,2.37,1.93,4.34,3.44,5.89,3.19,3.28,7.18,4.91,11.97,4.91,4.11,0,7.71-1.09,10.77-3.28,3.07-2.18,5.69-4.96,7.88-8.32,.5,3.53,1.83,6.22,3.97,8.06,2.14,1.85,4.93,2.77,8.38,2.77,8.09,0,14.61-3.56,19.56-10.67,.9,2.61,2.27,4.75,4.13,6.39,3.61,3.19,8.52,4.79,14.74,4.79,5.12,0,9.87-1.55,14.24-4.66,4.37-3.11,7.94-7.52,10.71-13.23,2.77-5.71,4.49-12.39,5.17-20.03,3.76-.62,7.28-1.6,10.57-2.91l-8.55,40.33h18.14l8.57-40.45c1.01-3.44,2.35-6.24,4.03-8.38,1.68-2.14,3.61-3.21,5.8-3.21,3.02,0,4.54,2.14,4.54,6.43,0,1.76-.29,4.08-.88,6.93-.59,2.86-1.22,5.75-1.89,8.69-.17,.59-.48,1.93-.94,4.03-.46,2.1-.9,4.26-1.32,6.49-.42,2.23-.63,4.22-.63,5.98,0,4.12,1.01,7.52,3.02,10.21,2.02,2.69,5.25,4.03,9.7,4.03,3.61,0,6.7-1.09,9.26-3.28,2.56-2.18,4.09-5.42,4.6-9.7-.76,.5-2.14,.76-4.16,.76-1.85,0-3.15-.46-3.91-1.39Zm-251.49-24.19c-.67,4.87-1.76,9.3-3.28,13.29-1.51,3.99-3.28,7.14-5.29,9.45-2.02,2.31-4.03,3.46-6.05,3.46-2.44,0-4.12-.69-5.04-2.08-.93-1.39-1.39-4.09-1.39-8.13,0-4.28,.8-9.24,2.39-14.87,1.59-5.63,3.7-10.46,6.3-14.49,2.6-4.03,5.29-6.05,8.06-6.05,1.68,0,2.86,.53,3.53,1.58,.67,1.05,1.09,2.96,1.26,5.73-2.6,1.09-3.91,3.36-3.91,6.8,0,3.02,1.13,4.79,3.4,5.29Zm114.53,14.49v.63c-.76,3.28-2.16,5.84-4.22,7.69-2.06,1.85-4.09,2.77-6.11,2.77-1.76,0-3.26-.59-4.47-1.76-1.22-1.17-1.83-3.86-1.83-8.06s.76-9.05,2.27-14.55c1.51-5.5,3.61-10.21,6.3-14.11,2.69-3.91,5.71-5.86,9.07-5.86,2.69,0,4.41,1.47,5.17,4.41l-6.17,28.85Zm70.56-14.49c-.67,4.87-1.76,9.3-3.28,13.29-1.51,3.99-3.28,7.14-5.29,9.45-2.02,2.31-4.03,3.46-6.05,3.46-2.44,0-4.12-.69-5.04-2.08-.93-1.39-1.39-4.09-1.39-8.13,0-4.28,.8-9.24,2.39-14.87,1.59-5.63,3.7-10.46,6.3-14.49,2.6-4.03,5.29-6.05,8.06-6.05,1.68,0,2.86,.53,3.53,1.58,.67,1.05,1.09,2.96,1.26,5.73-2.6,1.09-3.91,3.36-3.91,6.8,0,3.02,1.13,4.79,3.4,5.29Z"/>
  <path class="cls-1" d="M805.03,70.97l-27.72,66.4,2.9-66.4c-3.28-1.18-6.47-1.76-9.58-1.76-6.22,0-12.45,1.66-18.71,4.98-6.26,3.32-11.38,7.6-15.37,12.85-3.99,5.25-5.98,10.48-5.98,15.69,0,7.64,4.49,11.47,13.48,11.47,0-.25-.29-.96-.88-2.14-.59-1.18-.88-3.36-.88-6.55,0-7.14,1.74-13.12,5.23-17.96,3.49-4.83,8.42-8.29,14.81-10.4l-32,86.56h10.08l21.04-56.83-2.52,56.83h17.26l23.69-56.57-8.06,56.57h18.14l13.23-92.74h-18.14Z"/>
  <path class="cls-1" d="M1075.3,100.71h-18.14l-1.39,6.68v-.88c0-1.93-.84-3.48-2.52-4.66-1.68-1.18-4.24-1.76-7.69-1.76-6.8,0-12.66,2.37-17.58,7.12-4.91,4.75-8.61,10.54-11.09,17.39-2.48,6.85-3.72,13.38-3.72,19.59,0,.46,.03,.89,.04,1.33-1.34,3.18-2.86,5.73-4.57,7.62-2.44,2.69-5.67,4.71-9.7,6.05l12.47-58.46h-18.14l-1.39,6.55v-.76c0-1.93-.84-3.48-2.52-4.66-1.68-1.18-4.24-1.76-7.69-1.76-6.8,0-12.66,2.37-17.58,7.12-4.91,4.75-8.61,10.54-11.09,17.39-2.48,6.85-3.72,13.38-3.72,19.59,0,.22,.02,.42,.02,.64-.97,1.98-1.94,3.55-2.92,4.71-1.51,1.81-3.53,2.71-6.05,2.71-1.85,0-3.15-.46-3.91-1.39-.76-.92-1.13-2.22-1.13-3.91,0-1.43,.27-3.38,.82-5.86,.54-2.48,1.15-5.02,1.83-7.62,1.09-4.28,1.93-7.92,2.52-10.9,.59-2.98,.88-5.69,.88-8.13,0-4.79-1.26-8.36-3.78-10.71-2.52-2.35-5.92-3.53-10.21-3.53-5.63,0-10.54,2.35-14.74,7.06l1.39-6.55h-18.14l-8.59,40.53c-1.01,3.49-2.36,6.32-4.07,8.48-1.72,2.19-3.76,3.28-6.11,3.28-3.45,0-5.17-1.81-5.17-5.42,0-1.43,.17-2.77,.5-4.03l9.07-42.84h-18.14l-1.39,6.68v-.88c0-1.93-.84-3.48-2.52-4.66-1.68-1.18-4.24-1.76-7.69-1.76-6.8,0-12.66,2.37-17.58,7.12-4.91,4.75-8.61,10.54-11.09,17.39-2.48,6.85-3.72,13.38-3.72,19.59,0,6.97,1.6,12.1,4.79,15.37s7.18,4.91,11.97,4.91c4.11,0,7.66-1.07,10.65-3.21,2.98-2.14,5.69-4.93,8.13-8.38,.42,3.78,1.7,6.66,3.84,8.63,2.14,1.97,4.98,2.96,8.5,2.96,4.62,0,9.22-1.62,13.8-4.85,.98-.69,1.93-1.53,2.84-2.49l-1.4,6.59h18.14l8.57-40.45c1.01-3.44,2.35-6.24,4.03-8.38,1.68-2.14,3.61-3.21,5.8-3.21,3.02,0,4.54,2.14,4.54,6.43,0,1.76-.29,4.08-.88,6.93-.59,2.86-1.22,5.75-1.89,8.69-.17,.59-.48,1.93-.94,4.03-.46,2.1-.9,4.26-1.32,6.49-.42,2.23-.63,4.22-.63,5.98,0,4.03,1.2,7.41,3.59,10.14,2.39,2.73,6.15,4.09,11.28,4.09,4.37,0,8.59-1.58,12.66-4.73,1.83-1.41,3.56-3.44,5.19-6.08,.8,2.37,1.93,4.34,3.44,5.89,3.19,3.28,7.18,4.91,11.97,4.91,5.8,0,10.84-2.31,15.12-6.93l-1.51,6.68c-5.96,1.93-10.88,4.35-14.74,7.24-3.87,2.9-5.8,6.74-5.8,11.53,0,3.95,1.34,6.97,4.03,9.07,2.69,2.1,6.05,3.15,10.08,3.15,5.21,0,9.87-1.53,13.99-4.6,4.11-3.07,7.01-8.67,8.69-16.82l1.89-9.07c4.87-1.26,9.24-3.63,13.1-7.12,1.27-1.15,2.45-2.53,3.55-4.11,.8,2.45,1.96,4.48,3.51,6.07,3.19,3.28,7.18,4.91,11.97,4.91,7.39,0,13.65-3.91,18.77-11.72,.5,3.7,1.83,6.57,3.97,8.63,2.14,2.06,4.93,3.09,8.38,3.09,3.19,0,5.63-.95,7.31-2.83,1.68-1.89,3.44-5.19,5.29-9.89-.67,.34-1.6,.5-2.77,.5-1.85,0-3.17-.36-3.97-1.07-.8-.71-1.2-1.91-1.2-3.59,0-1.43,.17-2.77,.5-4.03l9.07-42.84Zm-220.5,40.45c-.76,3.45-2.16,6.15-4.22,8.13-2.06,1.97-4.14,2.96-6.24,2.96-1.76,0-3.26-.59-4.47-1.76-1.22-1.17-1.83-3.86-1.83-8.06s.76-9.05,2.27-14.55c1.51-5.5,3.61-10.21,6.3-14.11,2.69-3.91,5.71-5.86,9.07-5.86,1.76,0,3.07,.53,3.91,1.57,.84,1.05,1.26,2.12,1.26,3.21l-6.05,28.48Zm122.85,33.01c-.76,3.61-1.81,6.38-3.15,8.32-1.34,1.93-2.73,2.9-4.16,2.9-1.34,0-2.39-.42-3.15-1.26-.76-.84-1.13-1.81-1.13-2.9,0-4.12,4.11-7.69,12.35-10.71l-.76,3.65Zm6.68-31.75c-.76,3.02-2.14,5.42-4.16,7.18-2.02,1.76-3.99,2.65-5.92,2.65-1.76,0-3.26-.59-4.47-1.76-1.22-1.17-1.83-3.86-1.83-8.06s.76-9.05,2.27-14.55c1.51-5.5,3.61-10.21,6.3-14.11,2.69-3.91,5.71-5.86,9.07-5.86,1.76,0,3.07,.53,3.91,1.57,.84,1.05,1.26,2.08,1.26,3.09l-6.43,29.86Zm64.26-1.26c-.76,3.45-2.16,6.15-4.22,8.13-2.06,1.97-4.14,2.96-6.24,2.96-1.76,0-3.26-.59-4.47-1.76-1.22-1.17-1.83-3.86-1.83-8.06s.76-9.05,2.27-14.55c1.51-5.5,3.61-10.21,6.3-14.11,2.69-3.91,5.71-5.86,9.07-5.86,1.76,0,3.07,.53,3.91,1.57,.84,1.05,1.26,2.12,1.26,3.21l-6.05,28.48Z"/>
  <path class="cls-1" d="M1153.41,94.16c1.93,2.6,4.49,3.91,7.69,3.91,2.86,0,5.17-1.09,6.93-3.28,1.76-2.18,2.65-5.04,2.65-8.57,0-5.37-2.04-9.66-6.11-12.85-4.08-3.19-9.51-4.79-16.32-4.79-5.38,0-10.21,1.01-14.49,3.02s-7.64,4.77-10.08,8.25c-2.44,3.49-3.65,7.41-3.65,11.78s1.15,8.55,3.46,12.28c2.31,3.74,5.73,8.21,10.27,13.42,4.37,5.04,7.64,9.32,9.83,12.85,2.18,3.53,3.28,7.27,3.28,11.21,0,4.54-1.45,8.3-4.35,11.28-2.9,2.98-6.57,4.47-11.02,4.47-3.61,0-6.51-1.09-8.69-3.28-2.19-2.18-3.28-5.08-3.28-8.69,0-3.95,1.3-7.08,3.91-9.39,2.6-2.31,6.09-3.46,10.46-3.46-.5-2.6-1.76-4.64-3.78-6.11-2.02-1.47-4.5-2.21-7.43-2.21-3.19,0-6.11,.88-8.76,2.65-2.65,1.76-4.75,4.16-6.3,7.18-1.56,3.02-2.33,6.38-2.33,10.08,0,4.37,1.09,8.21,3.28,11.53,2.18,3.32,5.29,5.9,9.32,7.75s8.69,2.77,13.99,2.77c6.3,0,12.03-1.26,17.2-3.78,5.17-2.52,9.24-5.96,12.22-10.33,2.98-4.37,4.47-9.24,4.47-14.62,0-3.95-.74-7.62-2.21-11.03-1.47-3.4-3.23-6.4-5.29-9.01-2.06-2.6-4.77-5.71-8.13-9.32-4.12-4.54-7.14-8.25-9.07-11.15-1.93-2.9-2.9-6.03-2.9-9.39,0-3.7,1.07-6.74,3.21-9.14,2.14-2.39,4.89-3.59,8.25-3.59,2.77,0,4.96,.8,6.55,2.39,1.59,1.6,2.39,3.74,2.39,6.43,0,2.1-.46,4.12-1.39,6.05-.93,1.93-2.19,3.49-3.78,4.66Z"/>
  <path class="cls-1" d="M1343.42,104.74c-2.77-3.11-6.51-4.66-11.21-4.66-5.63,0-10.54,1.81-14.74,5.42l2.02-9.45h-18.14l-4.57,21.53c-.16,.07-.31,.14-.47,.21-3.61,1.47-6.8,2.2-9.58,2.2-.67,0-1.13-.04-1.39-.13v-.13c0-13.44-5.38-20.16-16.13-20.16-7.9,0-14.45,2.54-19.66,7.62-5.21,5.08-8.99,11.11-11.34,18.08-2.35,6.97-3.53,13.32-3.53,19.03,0,.26,.02,.5,.03,.76-.93,1.86-1.86,3.36-2.8,4.47-1.51,1.81-3.53,2.71-6.05,2.71-1.85,0-3.15-.46-3.91-1.39-.76-.92-1.13-2.22-1.13-3.91,0-1.43,.27-3.38,.82-5.86,.54-2.48,1.15-5.02,1.83-7.62,1.09-4.28,1.93-7.92,2.52-10.9,.59-2.98,.88-5.69,.88-8.13,0-4.79-1.26-8.36-3.78-10.71-2.52-2.35-5.92-3.53-10.21-3.53-5.63,0-10.54,2.35-14.74,7.06l6.8-31.75-18.65,2.52-18.27,85.68h18.14l8.57-40.45c1.01-3.44,2.35-6.24,4.03-8.38,1.68-2.14,3.61-3.21,5.8-3.21,3.02,0,4.54,2.14,4.54,6.43,0,1.76-.29,4.08-.88,6.93-.59,2.86-1.22,5.75-1.89,8.69-.17,.59-.48,1.93-.94,4.03-.46,2.1-.9,4.26-1.32,6.49-.42,2.23-.63,4.22-.63,5.98,0,4.03,1.2,7.41,3.59,10.14,2.39,2.73,6.15,4.09,11.28,4.09,4.37,0,8.59-1.58,12.66-4.73,1.84-1.42,3.58-3.47,5.22-6.13,.9,2.35,2.2,4.3,3.91,5.82,3.61,3.19,8.52,4.79,14.74,4.79,5.12,0,9.87-1.55,14.24-4.66,4.37-3.11,7.94-7.52,10.71-13.23,2.77-5.71,4.49-12.39,5.17-20.03,3.77-.62,7.29-1.6,10.58-2.92l-15.24,71.84,19.03-4.54,6.55-30.74c1.76,3.02,5.33,4.54,10.71,4.54,7.56,0,13.65-2.37,18.27-7.12,4.62-4.75,7.89-10.5,9.83-17.26,1.93-6.76,2.9-13.46,2.9-20.1,0-7.06-1.39-12.14-4.16-15.25Zm-68.92,21.92c-.67,4.87-1.76,9.3-3.28,13.29-1.51,3.99-3.28,7.14-5.29,9.45-2.02,2.31-4.03,3.46-6.05,3.46-2.44,0-4.12-.69-5.04-2.08-.93-1.39-1.39-4.09-1.39-8.13,0-4.28,.8-9.24,2.39-14.87,1.59-5.63,3.7-10.46,6.3-14.49,2.6-4.03,5.29-6.05,8.06-6.05,1.68,0,2.86,.53,3.53,1.58,.67,1.05,1.09,2.96,1.26,5.73-2.6,1.09-3.91,3.36-3.91,6.8,0,3.02,1.13,4.79,3.4,5.29Zm53.99,7.62c-1.22,5.25-3.15,9.76-5.8,13.54-2.65,3.78-5.98,5.67-10.02,5.67-2.52,0-4.12-.96-4.79-2.9l7.43-35.28c1.18-1.93,2.54-3.44,4.1-4.54,1.55-1.09,3.09-1.64,4.6-1.64,4.2,0,6.3,3.49,6.3,10.46,0,4.54-.61,9.43-1.83,14.68Z"/>
</svg>